<svg width="45" height="43" viewBox="0 0 45 43" fill="none" xmlns="http://www.w3.org/2000/svg">
<g filter="url(#filter0_d_22_67)">
<path d="M2.66669 2.16666H9.33335L13.8 24.4833C13.9524 25.2506 14.3699 25.9399 14.9793 26.4305C15.5887 26.921 16.3512 27.1816 17.1334 27.1667H33.3334C34.1155 27.1816 34.878 26.921 35.4874 26.4305C36.0968 25.9399 36.5143 25.2506 36.6667 24.4833L39.3334 10.5H11M17.6667 35.5C17.6667 36.4205 16.9205 37.1667 16 37.1667C15.0795 37.1667 14.3334 36.4205 14.3334 35.5C14.3334 34.5795 15.0795 33.8333 16 33.8333C16.9205 33.8333 17.6667 34.5795 17.6667 35.5ZM36 35.5C36 36.4205 35.2538 37.1667 34.3334 37.1667C33.4129 37.1667 32.6667 36.4205 32.6667 35.5C32.6667 34.5795 33.4129 33.8333 34.3334 33.8333C35.2538 33.8333 36 34.5795 36 35.5Z" stroke="white" stroke-width="4" stroke-linecap="round" stroke-linejoin="round" shape-rendering="crispEdges"/>
</g>
<defs>
<filter id="filter0_d_22_67" x="0.666687" y="0.166656" width="43.6667" height="42" filterUnits="userSpaceOnUse" color-interpolation-filters="sRGB">
<feFlood flood-opacity="0" result="BackgroundImageFix"/>
<feColorMatrix in="SourceAlpha" type="matrix" values="0 0 0 0 0 0 0 0 0 0 0 0 0 0 0 0 0 0 127 0" result="hardAlpha"/>
<feOffset dx="3" dy="3"/>
<feComposite in2="hardAlpha" operator="out"/>
<feColorMatrix type="matrix" values="0 0 0 0 0 0 0 0 0 0 0 0 0 0 0 0 0 0 0.25 0"/>
<feBlend mode="normal" in2="BackgroundImageFix" result="effect1_dropShadow_22_67"/>
<feBlend mode="normal" in="SourceGraphic" in2="effect1_dropShadow_22_67" result="shape"/>
</filter>
</defs>
</svg>
